<?xml version="1.0" encoding="UTF-8"?>
<svg width="66px" height="66px" viewBox="0 0 66 66" version="1.1" xmlns="http://www.w3.org/2000/svg" xmlns:xlink="http://www.w3.org/1999/xlink">
    <title>icon_top</title>
    <defs>
        <circle id="path-1" cx="20" cy="20" r="20"></circle>
        <filter x="-51.2%" y="-46.2%" width="202.5%" height="202.5%" filterUnits="objectBoundingBox" id="filter-2">
            <feOffset dx="0" dy="2" in="SourceAlpha" result="shadowOffsetOuter1"></feOffset>
            <feGaussianBlur stdDeviation="6.5" in="shadowOffsetOuter1" result="shadowBlurOuter1"></feGaussianBlur>
            <feColorMatrix values="0 0 0 0 0   0 0 0 0 0   0 0 0 0 0  0 0 0 0.0747377622 0" type="matrix" in="shadowBlurOuter1"></feColorMatrix>
        </filter>
    </defs>
    <g id="页面-1" stroke="none" stroke-width="1" fill="none" fill-rule="evenodd">
        <g id="主页" transform="translate(-1357.000000, -1504.000000)">
            <g id="icon_top" transform="translate(1370.000000, 1515.000000)">
                <g id="椭圆形">
                    <use fill="black" fill-opacity="1" filter="url(#filter-2)" xlink:href="#path-1"></use>
                    <use fill="#FFFFFF" fill-rule="evenodd" xlink:href="#path-1"></use>
                </g>
                <g id="arrow-alt-to-top" transform="translate(11.000000, 10.000000)" fill="#000000" fill-rule="nonzero">
                    <path d="M1.125,0 L16.875,0 C17.4984375,0 18,0.5015625 18,1.125 L18,2.25 C18,2.8734375 17.4984375,3.375 16.875,3.375 L1.125,3.375 C0.5015625,3.375 0,2.8734375 0,2.25 L0,1.125 C0,0.5015625 0.5015625,0 1.125,0 Z M12,19.875 L12,13.5 L16.1109375,13.5 C16.9453125,13.5 17.3625,12.4921875 16.771875,11.9015625 L9.6421875,4.7671875 C9.290625,4.415625 8.7140625,4.415625 8.3625,4.7671875 L1.2234375,11.9015625 C0.6328125,12.4921875 1.0546875,13.5 1.8890625,13.5 L6,13.5 L6,19.875 C6,20.4984375 6.5015625,21 7.125,21 L10.875,21 C11.4984375,21 12,20.4984375 12,19.875 Z" id="形状"></path>
                </g>
            </g>
        </g>
    </g>
</svg>