<?xml version="1.0" encoding="UTF-8"?>
<svg width="40px" height="40px" viewBox="0 0 40 40" version="1.1" xmlns="http://www.w3.org/2000/svg" xmlns:xlink="http://www.w3.org/1999/xlink">
    <title>icon_close</title>
    <g id="页面-1" stroke="none" stroke-width="1" fill="none" fill-rule="evenodd">
        <g id="弹窗" transform="translate(-1370.000000, -50.000000)" fill="#FFFFFF">
            <g id="icon_close" transform="translate(1370.000000, 50.000000)">
                <circle id="椭圆形" fill-opacity="0.197197334" cx="20" cy="20" r="20"></circle>
                <g id="guanbi-2" transform="translate(11.000000, 11.000000)" fill-rule="nonzero">
                    <path d="M11.0799849,9.01659144 L17.4953307,2.58629153 C17.8933129,2.21308809 18.0564603,1.65275905 17.9210257,1.12424407 C17.7855911,0.595729077 17.3730715,0.18291758 16.8446525,0.047109096 C16.3162334,-0.0886993877 15.7557891,0.0740515749 15.3823042,0.471769635 L8.9669585,6.90206956 L2.55161276,0.471769635 C1.96265021,-0.0805233884 1.04162154,-0.0655675387 0.470901263,0.505556649 C-0.0998190103,1.07668084 -0.114123251,1.99771986 0.438586312,2.58629153 L6.85393204,9.01659144 L0.438586312,15.4468914 C0.157781035,15.7273844 0,16.1080021 0,16.5049 C0,16.9017979 0.157781035,17.2824156 0.438586312,17.5629086 C1.02237541,18.1456971 1.96782366,18.1456971 2.55161276,17.5629086 L8.9669585,11.1326087 L15.3823042,17.5629086 C15.9660933,18.1456971 16.9115416,18.1456971 17.4953307,17.5629086 C17.776136,17.2824156 17.933917,16.9017979 17.933917,16.5049 C17.933917,16.1080021 17.776136,15.7273844 17.4953307,15.4468914 L11.0799849,9.01659144 Z" id="路径"></path>
                </g>
            </g>
        </g>
    </g>
</svg>