<?xml version="1.0" encoding="UTF-8"?>
<svg width="16px" height="16px" viewBox="0 0 16 16" version="1.1" xmlns="http://www.w3.org/2000/svg" xmlns:xlink="http://www.w3.org/1999/xlink">
    <title>icon_project</title>
    <defs>
        <circle id="path-1" cx="8" cy="8" r="8"></circle>
    </defs>
    <g id="页面-1" stroke="none" stroke-width="1" fill="none" fill-rule="evenodd">
        <g id="主页" transform="translate(-120.000000, -1112.000000)">
            <g id="编组-8" transform="translate(120.000000, 442.000000)">
                <g id="编组-9" transform="translate(0.000000, 669.000000)">
                    <g id="icon_project" transform="translate(0.000000, 1.000000)">
                        <mask id="mask-2" fill="white">
                            <use xlink:href="#path-1"></use>
                        </mask>
                        <use id="椭圆形" fill="#1E2023" xlink:href="#path-1"></use>
                        <g id="faxiangmu" mask="url(#mask-2)" fill="#FFFFFF" fill-rule="nonzero">
                            <g transform="translate(4.000000, 4.000000)" id="形状结合">
                                <path d="M7.03908103,0 C7.67536521,0 7.99900112,0.317642652 8,0.948932451 L8,0.948932451 L8,8.25371457 C8,8.75215383 7.56748658,8.99687851 7.11999001,8.75714821 L7.11999001,8.75714821 L4.01847921,7.02110126 L0.886003246,8.75714821 C0.433512299,8.99188413 0.000998876264,8.75714821 0.000998876264,8.25371457 L0.000998876264,8.25371457 L0,0.948932451 C0,0.320639281 0.32363591,0 0.95992009,0 L0.95992009,0 Z M5.49881383,4.05543763 L2.50018729,4.05543763 C2.30340867,4.05543763 2.14358846,4.21525783 2.14358846,4.41203646 C2.14358846,4.60881508 2.30340867,4.76863529 2.50018729,4.76863529 L5.49881383,4.76863529 C5.69559246,4.76863529 5.85541266,4.60881508 5.85541266,4.41203646 C5.85541266,4.21525783 5.69559246,4.05543763 5.49881383,4.05543763 Z M4.21326008,2.34336372 L2.50018729,2.34336372 C2.30340867,2.34336372 2.14358846,2.50318392 2.14358846,2.69996254 C2.14358846,2.89674117 2.30340867,3.05656137 2.50018729,3.05656137 L4.21326008,3.05656137 C4.41003871,3.05656137 4.56985891,2.89674117 4.56985891,2.69996254 C4.56985891,2.50318392 4.41003871,2.34336372 4.21326008,2.34336372 Z"></path>
                            </g>
                        </g>
                    </g>
                </g>
            </g>
        </g>
    </g>
</svg>